<svg width="47" height="30" viewBox="0 0 47 30" fill="none" xmlns="http://www.w3.org/2000/svg">
<path d="M36.376 29.8433C34.9316 29.8433 33.5439 29.5742 32.2129 29.0361C30.9102 28.4697 29.7632 27.6768 28.772 26.6572C27.8091 25.6377 27.0303 24.4199 26.4355 23.0039C25.8691 21.5596 25.5859 19.9595 25.5859 18.2036C25.5859 15.9097 25.8975 13.8423 26.5205 12.0015C27.1436 10.1323 27.9932 8.46143 29.0693 6.98877C30.1738 5.48779 31.4766 4.18506 32.9775 3.08057C34.4785 1.97607 36.1069 1.02734 37.8628 0.234375L40.709 2.91064C38.8115 4.01514 37.3389 5.21875 36.291 6.52148C35.2715 7.82422 34.5635 9.36768 34.167 11.1519C34.5635 11.0386 34.9883 10.9395 35.4414 10.8545C35.8945 10.7695 36.4468 10.7271 37.0981 10.7271C38.5708 10.7271 39.9019 10.9395 41.0913 11.3643C42.3091 11.7891 43.3428 12.4121 44.1924 13.2334C45.0703 14.0264 45.7358 15.0176 46.189 16.207C46.6704 17.3965 46.9111 18.7559 46.9111 20.2852C46.9111 21.6162 46.6704 22.8623 46.189 24.0234C45.7358 25.1846 45.0562 26.2041 44.1499 27.082C43.272 27.9316 42.1675 28.6113 40.8364 29.1211C39.5337 29.6025 38.0469 29.8433 36.376 29.8433ZM10.8877 29.8433C9.44336 29.8433 8.05566 29.5742 6.72461 29.0361C5.42188 28.4697 4.2749 27.6768 3.28369 26.6572C2.3208 25.6377 1.54199 24.4199 0.947266 23.0039C0.380859 21.5596 0.0976562 19.9595 0.0976562 18.2036C0.0976562 15.9097 0.40918 13.8423 1.03223 12.0015C1.65527 10.1323 2.50488 8.46143 3.58105 6.98877C4.68555 5.48779 5.98828 4.18506 7.48926 3.08057C8.99023 1.97607 10.6187 1.02734 12.3745 0.234375L15.2207 2.91064C13.3232 4.01514 11.8506 5.21875 10.8027 6.52148C9.7832 7.82422 9.0752 9.36768 8.67871 11.1519C9.0752 11.0386 9.5 10.9395 9.95312 10.8545C10.4062 10.7695 10.9585 10.7271 11.6099 10.7271C13.0825 10.7271 14.4136 10.9395 15.603 11.3643C16.8208 11.7891 17.8545 12.4121 18.7041 13.2334C19.582 14.0264 20.2476 15.0176 20.7007 16.207C21.1821 17.3965 21.4229 18.7559 21.4229 20.2852C21.4229 21.6162 21.1821 22.8623 20.7007 24.0234C20.2476 25.1846 19.5679 26.2041 18.6616 27.082C17.7837 27.9316 16.6792 28.6113 15.3481 29.1211C14.0454 29.6025 12.5586 29.8433 10.8877 29.8433Z" fill="black"/>
</svg>
